# This file uses centimeters as units for non-parametric coordinates.

mtllib brug.mtl
g default
v -3.128167 -0.135542 1.255482
v 3.128167 -0.135542 1.255482
v -3.128167 1.188566 1.255482
v 3.128167 1.188566 1.255482
v -3.128167 1.188566 -1.255482
v 3.128167 1.188566 -1.255482
v -3.128167 -0.135542 -1.255482
v 3.128167 -0.135542 -1.255482
v -3.128167 1.188566 -1.039989
v 3.128167 1.188566 -1.039989
v 3.128167 -0.135542 -1.039989
v -3.128167 -0.135542 -1.039989
v -3.128167 1.188566 1.027271
v 3.128167 1.188566 1.027271
v 3.128167 -0.135542 1.027271
v -3.128167 -0.135542 1.027271
v 0.574688 0.558884 1.255482
v 0.574688 0.558884 1.027271
v 0.574688 0.558884 -1.039989
v 0.574688 0.558884 -1.255482
v 0.574688 1.188566 -1.255482
v 0.574688 1.188566 -1.039989
v 0.574688 1.188566 1.027271
v 0.574688 1.188566 1.255482
v -0.822877 0.558884 1.255482
v -0.822877 0.558884 1.027271
v -0.822877 0.558884 -1.039989
v -0.822877 0.558884 -1.255482
v -0.822877 1.188566 -1.255482
v -0.822877 1.188566 -1.039989
v -0.822877 1.188566 1.027271
v -0.822877 1.188566 1.255482
v -3.128167 0.643471 1.255482
v -0.822877 0.643471 1.255482
v 0.574688 0.643471 1.255482
v 3.128167 0.643471 1.255482
v 3.128167 0.643471 1.027271
v 3.128167 0.643471 -1.039989
v 3.128167 0.643471 -1.255482
v 0.574688 0.643471 -1.255482
v -0.822877 0.643471 -1.255482
v -3.128167 0.643471 -1.255482
v -3.128167 0.643471 -1.039989
v -3.128167 0.643471 1.027271
v 0.574688 1.396866 1.027271
v 0.574688 1.396866 1.255482
v 3.128167 1.396866 1.255482
v 3.128167 1.396866 1.027271
v -0.822877 1.396866 1.027271
v -0.822877 1.396866 1.255482
v -3.128167 1.396866 1.255482
v -3.128167 1.396866 1.027271
v 0.574688 1.425177 -1.255482
v 0.574688 1.425177 -1.039989
v 3.128167 1.425177 -1.039989
v 3.128167 1.425177 -1.255482
v -0.822877 1.425177 -1.255482
v -0.822877 1.425177 -1.039989
v -3.128167 1.425177 -1.039989
v -3.128167 1.425177 -1.255482
vt 0.375000 0.000000
vt 0.625000 0.000000
vt 0.375000 0.250000
vt 0.625000 0.250000
vt 0.375000 0.500000
vt 0.625000 0.500000
vt 0.375000 0.750000
vt 0.625000 0.750000
vt 0.375000 1.000000
vt 0.625000 1.000000
vt 0.875000 0.000000
vt 0.875000 0.250000
vt 0.125000 0.000000
vt 0.125000 0.250000
vt 0.161903 0.250000
vt 0.375000 0.463097
vt 0.625000 0.463097
vt 0.838097 0.250000
vt 0.625000 0.786903
vt 0.838097 0.000000
vt 0.161903 0.000000
vt 0.375000 0.786903
vt 0.337905 0.250000
vt 0.375000 0.287095
vt 0.625000 0.287095
vt 0.662095 0.250000
vt 0.625000 0.962905
vt 0.662095 0.000000
vt 0.337905 0.000000
vt 0.375000 0.962905
vt 0.522964 0.000000
vt 0.522964 1.000000
vt 0.522964 0.962905
vt 0.522964 0.786903
vt 0.522964 0.750000
vt 0.522964 0.500000
vt 0.522964 0.463097
vt 0.522964 0.287095
vt 0.522964 0.250000
vt 0.467118 0.000000
vt 0.467118 1.000000
vt 0.467118 0.962905
vt 0.467118 0.786903
vt 0.467118 0.750000
vt 0.467118 0.500000
vt 0.467118 0.463097
vt 0.467118 0.287095
vt 0.467118 0.250000
vt 0.375000 0.147083
vt 0.467118 0.147083
vt 0.522964 0.147083
vt 0.625000 0.147083
vt 0.662095 0.147083
vt 0.838097 0.147083
vt 0.625000 0.602917
vt 0.875000 0.147083
vt 0.522964 0.602917
vt 0.467118 0.602917
vt 0.125000 0.147083
vt 0.375000 0.602917
vt 0.161903 0.147083
vt 0.337905 0.147083
vt 0.522964 0.250000
vt 0.625000 0.250000
vt 0.625000 0.287095
vt 0.522964 0.287095
vt 0.467118 0.250000
vt 0.467118 0.287095
vt 0.375000 0.250000
vt 0.375000 0.287095
vt 0.522964 0.463097
vt 0.625000 0.463097
vt 0.625000 0.500000
vt 0.522964 0.500000
vt 0.467118 0.463097
vt 0.467118 0.500000
vt 0.375000 0.463097
vt 0.375000 0.500000
vn 0.000000 0.000000 1.000000
vn 0.000000 0.000000 1.000000
vn 0.000000 0.000000 1.000000
vn 0.000000 0.000000 1.000000
vn 0.000000 1.000000 0.000000
vn 0.000000 1.000000 0.000000
vn 0.000000 1.000000 0.000000
vn 0.000000 1.000000 0.000000
vn 0.000000 0.000000 -1.000000
vn 0.000000 0.000000 -1.000000
vn 0.000000 0.000000 -1.000000
vn 0.000000 0.000000 -1.000000
vn -0.173104 -0.984903 -0.000000
vn -0.173104 -0.984903 -0.000000
vn -0.262422 -0.964953 -0.000000
vn -0.262422 -0.964953 -0.000000
vn 1.000000 0.000000 0.000000
vn 1.000000 0.000000 0.000000
vn 1.000000 0.000000 0.000000
vn 1.000000 0.000000 0.000000
vn -1.000000 0.000000 0.000000
vn -1.000000 0.000000 0.000000
vn -1.000000 0.000000 0.000000
vn -1.000000 0.000000 0.000000
vn 0.000000 1.000000 0.000000
vn 0.000000 1.000000 0.000000
vn 0.000000 1.000000 0.000000
vn 0.000000 1.000000 0.000000
vn 1.000000 0.000000 0.000000
vn 1.000000 0.000000 0.000000
vn -0.173104 -0.984903 0.000000
vn -0.262422 -0.964953 0.000000
vn -1.000000 0.000000 0.000000
vn -1.000000 0.000000 0.000000
vn 0.000000 1.000000 0.000000
vn 0.000000 1.000000 0.000000
vn 0.000000 1.000000 0.000000
vn 0.000000 1.000000 0.000000
vn 1.000000 0.000000 0.000000
vn 1.000000 0.000000 0.000000
vn -0.173104 -0.984903 0.000000
vn -0.262422 -0.964953 0.000000
vn -1.000000 0.000000 0.000000
vn -1.000000 0.000000 0.000000
vn 0.184325 -0.982865 0.000000
vn 0.184325 -0.982865 0.000000
vn 0.184325 -0.982865 -0.000000
vn 0.184325 -0.982865 -0.000000
vn 0.000000 0.000000 -1.000000
vn 0.000000 0.000000 -1.000000
vn 0.000000 1.000000 0.000000
vn 0.000000 1.000000 0.000000
vn 0.000000 1.000000 0.000000
vn 0.000000 1.000000 0.000000
vn 0.000000 1.000000 0.000000
vn 0.000000 1.000000 0.000000
vn 0.000000 0.000000 1.000000
vn 0.000000 0.000000 1.000000
vn 0.288430 -0.957501 0.000000
vn 0.288430 -0.957501 0.000000
vn 0.288430 -0.957501 0.000000
vn 0.288430 -0.957501 0.000000
vn 0.000000 0.000000 -1.000000
vn 0.000000 0.000000 -1.000000
vn 0.000000 1.000000 0.000000
vn 0.000000 1.000000 0.000000
vn 0.000000 1.000000 0.000000
vn 0.000000 1.000000 0.000000
vn 0.000000 1.000000 0.000000
vn 0.000000 1.000000 0.000000
vn 0.000000 0.000000 1.000000
vn 0.000000 0.000000 1.000000
vn 0.000000 0.000000 1.000000
vn 0.000000 0.000000 1.000000
vn 0.000000 0.000000 1.000000
vn 0.000000 0.000000 1.000000
vn 1.000000 0.000000 0.000000
vn 1.000000 0.000000 0.000000
vn 1.000000 0.000000 0.000000
vn 1.000000 0.000000 0.000000
vn 0.000000 0.000000 -1.000000
vn 0.000000 0.000000 -1.000000
vn 0.000000 0.000000 -1.000000
vn 0.000000 0.000000 -1.000000
vn -1.000000 0.000000 0.000000
vn -1.000000 0.000000 0.000000
vn -1.000000 0.000000 0.000000
vn -1.000000 0.000000 0.000000
vn 0.000000 0.000000 1.000000
vn 0.000000 0.000000 1.000000
vn 0.000000 0.000000 1.000000
vn 0.000000 0.000000 1.000000
vn 1.000000 0.000000 0.000000
vn 1.000000 0.000000 0.000000
vn 1.000000 0.000000 0.000000
vn 1.000000 0.000000 0.000000
vn 0.000000 0.000000 -1.000000
vn 0.000000 0.000000 -1.000000
vn 0.000000 0.000000 -1.000000
vn 0.000000 0.000000 -1.000000
vn 0.000000 0.000000 1.000000
vn 0.000000 0.000000 1.000000
vn 0.000000 0.000000 1.000000
vn 0.000000 0.000000 1.000000
vn 0.000000 0.000000 -1.000000
vn 0.000000 0.000000 -1.000000
vn 0.000000 0.000000 -1.000000
vn 0.000000 0.000000 -1.000000
vn 0.000000 0.000000 1.000000
vn 0.000000 0.000000 1.000000
vn 0.000000 0.000000 1.000000
vn 0.000000 0.000000 1.000000
vn 0.000000 0.000000 -1.000000
vn 0.000000 0.000000 -1.000000
vn 0.000000 0.000000 -1.000000
vn 0.000000 0.000000 -1.000000
vn -1.000000 0.000000 0.000000
vn -1.000000 0.000000 0.000000
vn -1.000000 0.000000 0.000000
vn -1.000000 0.000000 0.000000
vn 0.000000 0.000000 1.000000
vn 0.000000 0.000000 1.000000
vn 0.000000 0.000000 1.000000
vn 0.000000 0.000000 1.000000
vn 1.000000 0.000000 0.000000
vn 1.000000 0.000000 0.000000
vn 1.000000 0.000000 0.000000
vn 1.000000 0.000000 0.000000
vn 0.000000 0.000000 -1.000000
vn 0.000000 0.000000 -1.000000
vn 0.000000 0.000000 -1.000000
vn 0.000000 0.000000 -1.000000
vn 0.000000 0.000000 1.000000
vn 0.000000 0.000000 1.000000
vn 0.000000 0.000000 1.000000
vn 0.000000 0.000000 1.000000
vn 0.000000 0.000000 -1.000000
vn 0.000000 0.000000 -1.000000
vn 0.000000 0.000000 -1.000000
vn 0.000000 0.000000 -1.000000
vn 0.000000 0.000000 1.000000
vn 0.000000 0.000000 1.000000
vn 0.000000 0.000000 1.000000
vn 0.000000 0.000000 1.000000
vn 0.000000 0.000000 -1.000000
vn 0.000000 0.000000 -1.000000
vn 0.000000 0.000000 -1.000000
vn 0.000000 0.000000 -1.000000
vn -1.000000 0.000000 0.000000
vn -1.000000 0.000000 0.000000
vn -1.000000 0.000000 0.000000
vn -1.000000 0.000000 0.000000
s 1
g pCube1
usemtl initialShadingGroup
f 24/39/1 35/51/2 36/52/3 4/4/4
s 2
f 53/74/5 54/71/6 55/72/7 56/73/8
s 3
f 39/55/9 40/57/10 21/36/11 6/6/12
s 4
f 19/34/13 20/35/14 8/8/15 11/19/16
s 5
f 10/18/17 38/54/18 39/56/19 6/12/20
s 6
f 42/59/21 43/61/22 9/15/23 5/14/24
s 7
f 22/37/25 23/38/26 14/25/27 10/17/28
s 5
f 14/26/29 37/53/30 38/54/18 10/18/17
s 4
f 18/33/31 19/34/13 11/19/16 15/27/32
s 6
f 9/15/23 43/61/22 44/62/33 13/23/34
s 8
f 45/66/35 46/63/36 47/64/37 48/65/38
s 5
f 36/52/39 37/53/30 14/26/29 4/4/40
s 4
f 17/32/41 18/33/31 15/27/32 2/10/42
s 6
f 13/23/34 44/62/33 33/49/43 3/3/44
s 4
f 25/41/45 26/42/46 18/33/31 17/32/41
f 26/42/46 27/43/47 19/34/13 18/33/31
f 27/43/47 28/44/48 20/35/14 19/34/13
s 3
f 40/57/10 41/58/49 29/45/50 21/36/11
s 2
f 57/76/51 58/75/52 54/71/6 53/74/5
s 7
f 30/46/53 31/47/54 23/38/26 22/37/25
s 8
f 49/68/55 50/67/56 46/63/36 45/66/35
s 1
f 32/48/57 34/50/58 35/51/2 24/39/1
s 4
f 16/30/59 26/42/46 25/41/45 1/9/60
f 12/22/61 27/43/47 26/42/46 16/30/59
f 7/7/62 28/44/48 27/43/47 12/22/61
s 3
f 5/5/63 29/45/50 41/58/49 42/60/64
s 2
f 59/77/65 58/75/52 57/76/51 60/78/66
s 7
f 13/24/67 31/47/54 30/46/53 9/16/68
s 8
f 51/69/69 50/67/56 49/68/55 52/70/70
s 1
f 33/49/71 34/50/58 32/48/57 3/3/72
f 1/1/73 25/40/74 34/50/58 33/49/71
f 35/51/2 34/50/58 25/40/74 17/31/75
f 36/52/3 35/51/2 17/31/75 2/2/76
s 5
f 2/2/77 15/28/78 37/53/30 36/52/39
f 38/54/18 37/53/30 15/28/78 11/20/79
f 39/56/19 38/54/18 11/20/79 8/11/80
s 3
f 20/35/81 40/57/10 39/55/9 8/8/82
f 28/44/83 41/58/49 40/57/10 20/35/81
f 42/60/64 41/58/49 28/44/83 7/7/84
s 6
f 7/13/85 12/21/86 43/61/22 42/59/21
f 44/62/33 43/61/22 12/21/86 16/29/87
f 33/49/43 44/62/33 16/29/87 1/1/88
s off
f 24/39/89 4/4/90 47/64/91 46/63/92
f 4/4/93 14/25/94 48/65/95 47/64/96
f 14/25/97 23/38/98 45/66/99 48/65/100
f 32/48/101 24/39/102 46/63/103 50/67/104
f 23/38/105 31/47/106 49/68/107 45/66/108
f 3/3/109 32/48/110 50/67/111 51/69/112
f 31/47/113 13/24/114 52/70/115 49/68/116
f 13/24/117 3/3/118 51/69/119 52/70/120
f 22/37/121 10/17/122 55/72/123 54/71/124
f 10/17/125 6/6/126 56/73/127 55/72/128
f 6/6/129 21/36/130 53/74/131 56/73/132
f 30/46/133 22/37/134 54/71/135 58/75/136
f 21/36/137 29/45/138 57/76/139 53/74/140
f 9/16/141 30/46/142 58/75/143 59/77/144
f 29/45/145 5/5/146 60/78/147 57/76/148
f 5/5/149 9/16/150 59/77/151 60/78/152
