# File produced by Open Asset Import Library (http://www.assimp.sf.net)
# (assimp v3.1.193236683)

mtllib PBR - Metallic Roughness.mtl

# 68 vertex positions
v  1.20641 5.64925 1.02664
v  1.20641 5.64925 -3.29051
v  1.20641 8.97555 -1.13193
v  -4.41167 8.79533 -1.13193
v  -4.41167 5.82947 -3.0566
v  -4.41167 5.82947 0.792738
v  -5.05558 5.64925 -3.29051
v  -5.05558 8.97555 -1.13193
v  -5.05558 5.64925 1.02664
v  -5.05558 8.79533 -1.13193
v  -5.05558 8.93228 -1.13193
v  -5.05558 5.69252 -3.23435
v  -5.05558 5.82947 -3.0566
v  -4.74458 5.69252 -3.23435
v  -4.74458 5.69252 0.970481
v  -5.05558 5.82947 0.792738
v  -5.05558 5.69252 0.970481
v  -1.47135 6.80478 2.93729
v  -1.47135 6.80478 1.38902
v  -1.47135 8.0639 2.16315
v  -3.48618 7.99568 2.16315
v  -3.48618 6.87299 1.4729
v  -3.48618 6.87299 2.8534
v  -3.7171 6.80478 1.38902
v  -3.7171 8.0639 2.16315
v  -3.7171 6.80478 2.93729
v  -3.7171 7.99568 2.16315
v  -3.7171 8.04752 2.16315
v  -3.7171 6.82116 1.40916
v  -3.7171 6.87299 1.4729
v  -3.60557 6.82116 1.40916
v  -3.60557 6.82116 2.91714
v  -3.7171 6.87299 2.8534
v  -3.7171 6.82116 2.91714
v  -4.66647 5.74684 6.76878
v  4.66661 5.74684 6.76878
v  7.1004e-05 11.8389 6.76878
v  7.1004e-05 11.5088 -6.09645
v  4.16094 6.07691 -6.09645
v  -4.1608 6.07691 -6.09645
v  4.66661 5.74684 -6.76878
v  7.1004e-05 11.8389 -6.76878
v  -4.66647 5.74684 -6.76878
v  7.1004e-05 11.5088 -6.76878
v  7.1004e-05 11.7597 -6.76878
v  4.5452 5.82609 -6.76878
v  4.16094 6.07691 -6.76878
v  4.5452 5.82609 -6.09645
v  -4.54506 5.82609 -6.09645
v  -4.1608 6.07691 -6.76878
v  -4.54506 5.82609 -6.76878
v  -1.47135 6.80478 5.33686
v  -1.47135 6.80478 3.78859
v  -1.47135 8.0639 4.56272
v  -3.48618 7.99568 4.56272
v  -3.48618 6.87299 3.87248
v  -3.48618 6.87299 5.25297
v  -3.7171 6.80478 3.78859
v  -3.7171 8.0639 4.56272
v  -3.7171 6.80478 5.33686
v  -3.7171 7.99568 4.56272
v  -3.7171 8.04752 4.56272
v  -3.7171 6.82116 3.80873
v  -3.7171 6.87299 3.87248
v  -3.60557 6.82116 3.80873
v  -3.60557 6.82116 5.31672
v  -3.7171 6.87299 5.25297
v  -3.7171 6.82116 5.31672

# 69 UV coordinates
vt 0.40955 0.99804 0
vt 0.36727 0.70535 0
vt 0.49529 0.9026 0
vt 0.71715 0.80215 0
vt 0.75177 0.67367 0
vt 0.7887 0.91706 0
vt 0.71463 0.64332 0
vt 0.69588 0.80208 0
vt 0.77039 0.96154 0
vt 0.6987 0.80208 0
vt 0.69657 0.80208 0
vt 0.71589 0.64646 0
vt 0.71929 0.65654 0
vt 0.76121 0.65803 0
vt 0.79835 0.93241 0
vt 0.76843 0.94623 0
vt 0.77035 0.9578 0
vt 0.23613 0.84472 0
vt 0.22039 0.73863 0
vt 0.26726 0.80991 0
vt 0.34613 0.77335 0
vt 0.35883 0.72683 0
vt 0.37264 0.81516 0
vt 0.34545 0.7156 0
vt 0.3384 0.77331 0
vt 0.36624 0.83154 0
vt 0.33944 0.77332 0
vt 0.33865 0.77331 0
vt 0.34591 0.71673 0
vt 0.34714 0.72039 0
vt 0.36223 0.72109 0
vt 0.3762 0.82075 0
vt 0.36549 0.82597 0
vt 0.36622 0.83018 0
vt 0.168 0.3601 0
vt 0.00195 0.00195 0
vt 0.30375 0.31186 0
vt 0.66715 0.29291 0
vt 0.80348 0.07605 0
vt 0.617 0.61774 0
vt 0.76242 0.0158 0
vt 0.65275 0.27794 0
vt 0.54894 0.65938 0
vt 0.65449 0.28181 0
vt 0.65323 0.27888 0
vt 0.76337 0.02265 0
vt 0.76551 0.04459 0
vt 0.8229 0.0546 0
vt 0.61956 0.6458 0
vt 0.56985 0.62802 0
vt 0.5542 0.65196 0
vt 0.00648 0.78166 0
vt 0.37452 0.83301 0
vt 0.39026 0.9391 0
vt 0.34339 0.86782 0
vt 0.26453 0.90438 0
vt 0.25182 0.9509 0
vt 0.23801 0.86257 0
vt 0.2652 0.96213 0
vt 0.27225 0.90442 0
vt 0.24441 0.84619 0
vt 0.27122 0.90441 0
vt 0.272 0.90442 0
vt 0.26475 0.961 0
vt 0.26352 0.95734 0
vt 0.24842 0.95664 0
vt 0.23445 0.85698 0
vt 0.24516 0.85176 0
vt 0.24444 0.84756 0

# 66 vertex normals
vn 0.27778 0.522941 0.805836
vn 0.500629 0.471236 -0.726159
vn 0.300447 0.848419 -0.435795
vn -0.939046 -0.305809 0.157081
vn -0.98205 0.0997978 0.160059
vn -0.945291 -0.103806 -0.309271
vn -0.00371256 0.544361 -0.838843
vn -0.00609312 0.889499 0.456897
vn -0.00376154 0.544361 0.838843
vn -0.191404 -0.873069 -0.448458
vn -1 0 0
vn -0.948636 -0.250609 0.193091
vn -0.0561153 -0.552051 0.83192
vn -0.393529 0.918851 0.0291062
vn -0.401647 0.914556 -0.0476192
vn -0.2171 -0.554669 -0.803249
vn -0.98926 -0.115783 -0.0892098
vn 0.281753 0.502529 0.817362
vn 0.50642 0.45162 -0.734559
vn 0.312172 0.835175 -0.452803
vn -0.943574 -0.291126 0.157838
vn -0.982551 0.0945998 0.160141
vn -0.945813 -0.0984009 -0.309443
vn -0.00377003 0.523744 -0.851868
vn -0.00635599 0.87909 0.476613
vn -0.00381987 0.523744 0.851867
vn -0.199341 -0.861465 -0.467057
vn -0.951701 -0.238202 0.193713
vn -0.0570132 -0.531379 0.845213
vn -0.411721 0.910801 0.0304515
vn -0.420028 0.906144 -0.0497985
vn -0.220601 -0.533982 -0.81621
vn -0.98994 -0.109769 -0.0892693
vn -0.945407 0 0.325892
vn 0.384725 -0.884102 0.265238
vn 0.384725 0.884102 0.265238
vn -0.0791852 -0.181968 -0.980111
vn -0.0800411 -0.0664951 -0.994571
vn 0.154928 -0.121353 -0.980444
vn 0.99999 0 -0.00442585
vn -0.399011 0.916931 -0.00532125
vn -0.399016 -0.916942 -0.00178924
vn 0.376309 -0.864761 -0.332535
vn 0 0 -1
vn -0.128847 -0.197395 -0.97182
vn -0.78253 -0.612947 -0.109287
vn -0.0732938 -0.112287 -0.990969
vn 0.0764668 -0.117148 -0.990166
vn 0.708921 -0.588945 -0.388039
vn 0.0889744 -0.136309 -0.986663
vn 0.281753 0.502529 0.817361
vn 0.506421 0.451621 -0.734559
vn 0.312172 0.835176 -0.452803
vn -0.943574 -0.291126 0.157839
vn -0.982551 0.0945998 0.160141
vn -0.945813 -0.0984009 -0.309443
vn -0.00377023 0.523744 -0.851867
vn -0.00635604 0.879091 0.476612
vn -0.00381994 0.523744 0.851867
vn -0.199341 -0.861464 -0.467057
vn -0.951703 -0.238198 0.193711
vn -0.0570131 -0.531379 0.845213
vn -0.411721 0.910801 0.0304515
vn -0.420028 0.906144 -0.0497986
vn -0.220605 -0.533981 -0.816209
vn -0.989941 -0.109769 -0.0892669

# Mesh 'g Group2_Group2' with 98 faces
g g Group2_Group2
usemtl defaultMat
f  1/1/1 2/2/2 3/3/3
f  4/4/4 5/5/5 6/6/6
f  3/3/3 2/2/2 7/7/7
f  7/7/7 8/8/8 3/3/3
f  8/8/8 9/9/9 1/1/1
f  1/1/1 3/3/3 8/8/8
f  10/10/10 11/11/11 12/12/12
f  12/12/12 13/13/13 10/10/10
f  5/5/5 14/14/14 15/15/15
f  15/15/15 6/6/6 5/5/5
f  16/16/16 17/17/17 11/11/11
f  11/11/11 10/10/10 16/16/16
f  11/11/11 8/8/8 7/7/7
f  7/7/7 12/12/12 11/11/11
f  17/17/17 9/9/9 8/8/8
f  8/8/8 11/11/11 17/17/17
f  4/4/4 10/10/10 13/13/13
f  13/13/13 5/5/5 4/4/4
f  6/6/6 16/16/16 10/10/10
f  10/10/10 4/4/4 6/6/6
f  15/15/15 17/17/17 16/16/16
f  16/16/16 6/6/6 15/15/15
f  5/5/5 13/13/13 12/12/12
f  12/12/12 14/14/14 5/5/5
f  18/18/18 19/19/19 20/20/20
f  21/21/21 22/22/22 23/23/23
f  20/20/20 19/19/19 24/24/24
f  24/24/24 25/25/25 20/20/20
f  25/25/25 26/26/26 18/18/18
f  18/18/18 20/20/20 25/25/25
f  27/27/27 28/28/11 29/29/28
f  29/29/28 30/30/29 27/27/27
f  22/22/22 31/31/30 32/32/31
f  32/32/31 23/23/23 22/22/22
f  33/33/32 34/34/33 28/28/11
f  28/28/11 27/27/27 33/33/32
f  28/28/11 25/25/25 24/24/24
f  24/24/24 29/29/28 28/28/11
f  34/34/33 26/26/26 25/25/25
f  25/25/25 28/28/11 34/34/33
f  21/21/21 27/27/27 30/30/29
f  30/30/29 22/22/22 21/21/21
f  23/23/23 33/33/32 27/27/27
f  27/27/27 21/21/21 23/23/23
f  32/32/31 34/34/33 33/33/32
f  33/33/32 23/23/23 32/32/31
f  22/22/22 30/30/29 29/29/28
f  29/29/28 31/31/30 22/22/22
f  35/35/34 36/36/35 37/37/36
f  38/38/37 39/39/38 40/40/39
f  37/37/36 36/36/35 41/41/40
f  41/41/40 42/42/41 37/37/36
f  42/42/41 43/43/42 35/35/34
f  35/35/34 37/37/36 42/42/41
f  44/44/43 45/45/44 46/46/45
f  46/46/45 47/47/46 44/44/43
f  39/39/38 48/48/47 49/49/48
f  49/49/48 40/40/39 39/39/38
f  50/50/49 51/51/50 45/45/44
f  45/45/44 44/44/43 50/50/49
f  45/45/44 42/42/41 41/41/40
f  41/41/40 46/46/45 45/45/44
f  51/51/50 43/43/42 42/42/41
f  42/42/41 45/45/44 51/51/50
f  38/38/37 44/44/43 47/47/46
f  47/47/46 39/39/38 38/38/37
f  40/40/39 50/50/49 44/44/43
f  44/44/43 38/38/37 40/40/39
f  49/49/48 51/51/50 50/50/49
f  50/50/49 40/40/39 49/49/48
f  39/39/38 47/47/46 46/46/45
f  46/46/45 48/48/47 39/39/38
f  36/36/35 35/35/34 43/43/42
f  43/43/42 41/52/40 36/36/35
f  52/53/51 53/54/52 54/55/53
f  55/56/54 56/57/55 57/58/56
f  54/55/53 53/54/52 58/59/57
f  58/59/57 59/60/58 54/55/53
f  59/60/58 60/61/59 52/53/51
f  52/53/51 54/55/53 59/60/58
f  61/62/60 62/63/11 63/64/61
f  63/64/61 64/65/62 61/62/60
f  56/57/55 65/66/63 66/67/64
f  66/67/64 57/58/56 56/57/55
f  67/68/65 68/69/66 62/63/11
f  62/63/11 61/62/60 67/68/65
f  62/63/11 59/60/58 58/59/57
f  58/59/57 63/64/61 62/63/11
f  68/69/66 60/61/59 59/60/58
f  59/60/58 62/63/11 68/69/66
f  55/56/54 61/62/60 64/65/62
f  64/65/62 56/57/55 55/56/54
f  57/58/56 67/68/65 61/62/60
f  61/62/60 55/56/54 57/58/56
f  66/67/64 68/69/66 67/68/65
f  67/68/65 57/58/56 66/67/64
f  56/57/55 64/65/62 63/64/61
f  63/64/61 65/66/63 56/57/55

